<svg width="51" height="51" viewBox="0 0 51 51" fill="none" xmlns="http://www.w3.org/2000/svg">
<rect width="51" height="51" fill="url(#paint0_linear_108_113)"/>
<g filter="url(#filter0_d_108_113)">
<path d="M27.3626 11.1405C27.3626 10.0359 28.258 9.14046 29.3626 9.14046H40.3626C41.4672 9.14046 42.3626 10.0359 42.3626 11.1405V22.1405C42.3626 23.245 41.4672 24.1405 40.3626 24.1405H29.3626C28.258 24.1405 27.3626 23.245 27.3626 22.1405V11.1405Z" fill="white"/>
<path d="M24.149 9.0016C24.7003 8.96969 25.1494 9.42054 25.1494 9.97282L25.1495 24.1116C25.1495 24.3769 25.0442 24.6312 24.8566 24.8188L10.9063 38.7691C10.2819 39.3935 9.21377 38.9612 9.19934 38.0783L9 25.8764C9 16.8245 15.284 9.51456 24.149 9.0016Z" fill="white"/>
<path d="M42.5446 27.2357C42.5765 26.6844 42.1257 26.2353 41.5734 26.2353L27.4346 26.2352C27.1693 26.2352 26.915 26.3405 26.7274 26.5281L12.7771 40.4784C12.1527 41.1028 12.585 42.1709 13.4679 42.1854L25.6698 42.3847C34.7217 42.3847 42.0316 36.1007 42.5446 27.2357Z" fill="white"/>
</g>
<defs>
<filter id="filter0_d_108_113" x="5" y="9" width="41.5461" height="41.3848" filterUnits="userSpaceOnUse" color-interpolation-filters="sRGB">
<feFlood flood-opacity="0" result="BackgroundImageFix"/>
<feColorMatrix in="SourceAlpha" type="matrix" values="0 0 0 0 0 0 0 0 0 0 0 0 0 0 0 0 0 0 127 0" result="hardAlpha"/>
<feOffset dy="4"/>
<feGaussianBlur stdDeviation="2"/>
<feComposite in2="hardAlpha" operator="out"/>
<feColorMatrix type="matrix" values="0 0 0 0 0 0 0 0 0 0 0 0 0 0 0 0 0 0 0.25 0"/>
<feBlend mode="normal" in2="BackgroundImageFix" result="effect1_dropShadow_108_113"/>
<feBlend mode="normal" in="SourceGraphic" in2="effect1_dropShadow_108_113" result="shape"/>
</filter>
<linearGradient id="paint0_linear_108_113" x1="0" y1="0" x2="51" y2="51" gradientUnits="userSpaceOnUse">
<stop stop-color="#79F1A4"/>
<stop offset="1" stop-color="#0E5CAD"/>
</linearGradient>
</defs>
</svg>
