<svg width="229" height="51" viewBox="0 0 229 51" fill="none" xmlns="http://www.w3.org/2000/svg">
<rect width="229" height="51" fill="white"/>
<g filter="url(#filter0_d_108_116)">
<path d="M27.3626 11.1405C27.3626 10.0359 28.258 9.14046 29.3626 9.14046H40.3626C41.4672 9.14046 42.3626 10.0359 42.3626 11.1405V22.1405C42.3626 23.245 41.4672 24.1405 40.3626 24.1405H29.3626C28.258 24.1405 27.3626 23.245 27.3626 22.1405V11.1405Z" fill="url(#paint0_linear_108_116)"/>
<path d="M24.149 9.0016C24.7003 8.96969 25.1494 9.42054 25.1494 9.97282L25.1495 24.1116C25.1495 24.3769 25.0442 24.6312 24.8566 24.8188L10.9063 38.7691C10.2819 39.3935 9.21377 38.9612 9.19934 38.0783L9 25.8764C9 16.8245 15.284 9.51456 24.149 9.0016Z" fill="url(#paint1_linear_108_116)"/>
<path d="M42.5446 27.2357C42.5765 26.6844 42.1257 26.2353 41.5734 26.2353L27.4346 26.2352C27.1693 26.2352 26.915 26.3405 26.7274 26.5281L12.7771 40.4784C12.1527 41.1028 12.585 42.1709 13.4679 42.1854L25.6698 42.3847C34.7217 42.3847 42.0316 36.1007 42.5446 27.2357Z" fill="url(#paint2_linear_108_116)"/>
<path d="M65.4196 40C63.3633 40 61.4484 39.6564 59.6749 38.9693C57.9271 38.2558 56.3977 37.2647 55.0868 35.9962C53.8017 34.7012 52.7992 33.1816 52.0795 31.4373C51.3598 29.6931 51 27.7903 51 25.7289C51 23.6675 51.3598 21.7647 52.0795 20.0205C52.7992 18.2762 53.8145 16.7698 55.1254 15.5013C56.4363 14.2063 57.9656 13.2153 59.7135 12.5281C61.4613 11.8146 63.3762 11.4578 65.4582 11.4578C67.6687 11.4578 69.6864 11.8542 71.5113 12.6471C73.3363 13.4135 74.8785 14.5631 76.1379 16.0959L72.8993 19.2276C71.9226 18.1441 70.8302 17.338 69.6221 16.8095C68.4141 16.2545 67.1032 15.977 65.6895 15.977C64.2758 15.977 62.9778 16.2148 61.7954 16.6905C60.6388 17.1662 59.6235 17.8402 58.7496 18.7123C57.9014 19.5844 57.2331 20.6151 56.7447 21.8043C56.2821 22.9936 56.0507 24.3018 56.0507 25.7289C56.0507 27.156 56.2821 28.4642 56.7447 29.6535C57.2331 30.8427 57.9014 31.8734 58.7496 32.7455C59.6235 33.6176 60.6388 34.2916 61.7954 34.7673C62.9778 35.243 64.2758 35.4808 65.6895 35.4808C67.1032 35.4808 68.4141 35.2165 69.6221 34.688C70.8302 34.133 71.9226 33.3005 72.8993 32.1905L76.1379 35.3619C74.8785 36.8683 73.3363 38.0179 71.5113 38.8107C69.6864 39.6036 67.6558 40 65.4196 40Z" fill="url(#paint3_linear_108_116)"/>
<path d="M87.2635 39.8811C85.1301 39.8811 83.4594 39.2864 82.2513 38.0972C81.069 36.8815 80.4778 35.1769 80.4778 32.9834V10.1893H85.2972V32.6266C85.2972 33.6573 85.5414 34.4501 86.0297 35.0051C86.5181 35.5337 87.2378 35.798 88.1888 35.798C88.523 35.798 88.8442 35.7583 89.1527 35.679C89.4868 35.5997 89.7439 35.5072 89.9238 35.4015L90.1551 39.3657C89.6925 39.5243 89.2169 39.6432 88.7286 39.7225C88.2402 39.8282 87.7519 39.8811 87.2635 39.8811Z" fill="url(#paint4_linear_108_116)"/>
<path d="M102.693 39.8811C100.405 39.8811 98.4006 39.4186 96.6785 38.4936C94.982 37.5422 93.6583 36.2472 92.7073 34.6087C91.782 32.9702 91.3193 31.107 91.3193 29.0192C91.3193 26.9049 91.7691 25.0418 92.6687 23.4297C93.5941 21.7911 94.8535 20.5094 96.4471 19.5844C98.0665 18.6594 99.8914 18.1969 101.922 18.1969C103.85 18.1969 105.585 18.6198 107.127 19.4655C108.695 20.3112 109.941 21.5269 110.867 23.1125C111.818 24.6718 112.306 26.5614 112.332 28.7813L95.329 32.1905L95.2519 28.9399L109.517 26.1253L107.821 28.3056C107.847 27.1164 107.602 26.0593 107.088 25.1343C106.574 24.2093 105.88 23.4825 105.006 22.954C104.132 22.4254 103.104 22.1611 101.922 22.1611C100.765 22.1611 99.7372 22.4254 98.8375 22.954C97.9379 23.4825 97.2311 24.2489 96.717 25.2532C96.2287 26.231 95.9845 27.3939 95.9845 28.7417C95.9845 30.2217 96.2672 31.4902 96.8327 32.5473C97.3982 33.578 98.195 34.3576 99.2231 34.8862C100.251 35.4147 101.446 35.679 102.809 35.679C103.965 35.679 104.994 35.494 105.893 35.124C106.818 34.7541 107.654 34.1726 108.399 33.3798L110.944 36.4322C110.044 37.5422 108.888 38.4011 107.474 39.009C106.086 39.5904 104.492 39.8811 102.693 39.8811Z" fill="url(#paint5_linear_108_116)"/>
<path d="M125.676 39.8811C123.696 39.8811 121.91 39.4318 120.316 38.5333C118.748 37.6083 117.515 36.3397 116.615 34.7276C115.715 33.1155 115.266 31.2127 115.266 29.0192C115.266 26.8257 115.715 24.9228 116.615 23.3107C117.515 21.6986 118.748 20.4433 120.316 19.5448C121.91 18.6462 123.696 18.1969 125.676 18.1969C127.372 18.1969 128.901 18.5934 130.264 19.3862C131.626 20.1526 132.705 21.3286 133.502 22.9143C134.325 24.5 134.736 26.535 134.736 29.0192C134.736 31.477 134.338 33.5119 133.541 35.124C132.77 36.7097 131.703 37.899 130.341 38.6918C129.004 39.4847 127.449 39.8811 125.676 39.8811ZM126.215 35.6394C127.372 35.6394 128.413 35.3751 129.338 34.8465C130.264 34.318 130.996 33.5516 131.536 32.5473C132.076 31.5431 132.346 30.367 132.346 29.0192C132.346 27.6449 132.076 26.4689 131.536 25.491C130.996 24.4868 130.264 23.7204 129.338 23.1918C128.413 22.6633 127.372 22.399 126.215 22.399C125.059 22.399 124.018 22.6633 123.092 23.1918C122.193 23.7204 121.473 24.4868 120.933 25.491C120.393 26.4689 120.124 27.6449 120.124 29.0192C120.124 30.367 120.393 31.5431 120.933 32.5473C121.473 33.5516 122.193 34.318 123.092 34.8465C124.018 35.3751 125.059 35.6394 126.215 35.6394ZM132.5 39.6036V34.6087L132.654 28.9795L132.268 23.3504V18.4348H137.088V39.6036H132.5Z" fill="url(#paint6_linear_108_116)"/>
<path d="M143.393 39.6036V18.4348H147.981V24.2621L147.442 22.5575C148.059 21.1304 149.022 20.0469 150.333 19.3069C151.67 18.5669 153.328 18.1969 155.307 18.1969V22.9143C155.101 22.8615 154.909 22.835 154.729 22.835C154.549 22.8086 154.369 22.7954 154.189 22.7954C152.364 22.7954 150.912 23.3504 149.832 24.4604C148.753 25.5439 148.213 27.1692 148.213 29.3363V39.6036H143.393Z" fill="url(#paint7_linear_108_116)"/>
<path d="M159.707 39.6036V11.8542H172.353C175.592 11.8542 178.06 12.5149 179.756 13.8363C181.452 15.1313 182.301 16.8755 182.301 19.0691C182.301 20.549 181.966 21.8176 181.298 22.8747C180.63 23.9054 179.73 24.7114 178.599 25.2928C177.494 25.8478 176.286 26.1253 174.975 26.1253L175.669 24.6982C177.186 24.6982 178.548 24.9889 179.756 25.5703C180.964 26.1253 181.915 26.9446 182.609 28.0281C183.329 29.1117 183.689 30.4595 183.689 32.0716C183.689 34.4501 182.802 36.3001 181.028 37.6215C179.255 38.9429 176.62 39.6036 173.125 39.6036H159.707ZM164.719 35.5601H172.816C174.692 35.5601 176.132 35.243 177.134 34.6087C178.137 33.9744 178.638 32.9569 178.638 31.5563C178.638 30.182 178.137 29.1777 177.134 28.5435C176.132 27.8828 174.692 27.5524 172.816 27.5524H164.334V23.5486H171.814C173.561 23.5486 174.898 23.2315 175.823 22.5972C176.774 21.9629 177.25 21.0115 177.25 19.743C177.25 18.448 176.774 17.4834 175.823 16.8491C174.898 16.2148 173.561 15.8977 171.814 15.8977H164.719V35.5601Z" fill="url(#paint8_linear_108_116)"/>
<path d="M188.575 39.6036V18.4348H193.395V39.6036H188.575ZM191.004 14.9463C190.105 14.9463 189.359 14.6556 188.768 14.0742C188.202 13.4928 187.92 12.7924 187.92 11.9731C187.92 11.1275 188.202 10.4271 188.768 9.87212C189.359 9.29071 190.105 9 191.004 9C191.904 9 192.636 9.27749 193.202 9.83248C193.793 10.361 194.089 11.035 194.089 11.8542C194.089 12.7263 193.806 13.4663 193.24 14.0742C192.675 14.6556 191.929 14.9463 191.004 14.9463Z" fill="url(#paint9_linear_108_116)"/>
<path d="M211.402 18.1969C213.047 18.1969 214.512 18.5273 215.797 19.188C217.108 19.8487 218.136 20.8662 218.882 22.2404C219.627 23.5882 220 25.3325 220 27.4731V39.6036H215.181V28.1074C215.181 26.231 214.744 24.8304 213.87 23.9054C213.022 22.9804 211.826 22.5179 210.284 22.5179C209.153 22.5179 208.151 22.7558 207.277 23.2315C206.403 23.7072 205.722 24.4207 205.233 25.3721C204.771 26.2971 204.539 27.4731 204.539 28.9003V39.6036H199.72V18.4348H204.308V24.1432L203.498 22.399C204.218 21.0512 205.259 20.0205 206.621 19.3069C208.009 18.5669 209.603 18.1969 211.402 18.1969Z" fill="url(#paint10_linear_108_116)"/>
</g>
<defs>
<filter id="filter0_d_108_116" x="4" y="7" width="221" height="43.3848" filterUnits="userSpaceOnUse" color-interpolation-filters="sRGB">
<feFlood flood-opacity="0" result="BackgroundImageFix"/>
<feColorMatrix in="SourceAlpha" type="matrix" values="0 0 0 0 0 0 0 0 0 0 0 0 0 0 0 0 0 0 127 0" result="hardAlpha"/>
<feOffset dy="3"/>
<feGaussianBlur stdDeviation="2.5"/>
<feComposite in2="hardAlpha" operator="out"/>
<feColorMatrix type="matrix" values="0 0 0 0 0 0 0 0 0 0 0 0 0 0 0 0 0 0 0.25 0"/>
<feBlend mode="normal" in2="BackgroundImageFix" result="effect1_dropShadow_108_116"/>
<feBlend mode="normal" in="SourceGraphic" in2="effect1_dropShadow_108_116" result="shape"/>
</filter>
<linearGradient id="paint0_linear_108_116" x1="9" y1="9" x2="19.3063" y2="74.1387" gradientUnits="userSpaceOnUse">
<stop stop-color="#79F1A4"/>
<stop offset="1" stop-color="#0E5CAD"/>
</linearGradient>
<linearGradient id="paint1_linear_108_116" x1="9" y1="9" x2="19.3063" y2="74.1387" gradientUnits="userSpaceOnUse">
<stop stop-color="#79F1A4"/>
<stop offset="1" stop-color="#0E5CAD"/>
</linearGradient>
<linearGradient id="paint2_linear_108_116" x1="9" y1="9" x2="19.3063" y2="74.1387" gradientUnits="userSpaceOnUse">
<stop stop-color="#79F1A4"/>
<stop offset="1" stop-color="#0E5CAD"/>
</linearGradient>
<linearGradient id="paint3_linear_108_116" x1="9" y1="9" x2="19.3063" y2="74.1387" gradientUnits="userSpaceOnUse">
<stop stop-color="#79F1A4"/>
<stop offset="1" stop-color="#0E5CAD"/>
</linearGradient>
<linearGradient id="paint4_linear_108_116" x1="9" y1="9" x2="19.3063" y2="74.1387" gradientUnits="userSpaceOnUse">
<stop stop-color="#79F1A4"/>
<stop offset="1" stop-color="#0E5CAD"/>
</linearGradient>
<linearGradient id="paint5_linear_108_116" x1="9" y1="9" x2="19.3063" y2="74.1387" gradientUnits="userSpaceOnUse">
<stop stop-color="#79F1A4"/>
<stop offset="1" stop-color="#0E5CAD"/>
</linearGradient>
<linearGradient id="paint6_linear_108_116" x1="9" y1="9" x2="19.3063" y2="74.1387" gradientUnits="userSpaceOnUse">
<stop stop-color="#79F1A4"/>
<stop offset="1" stop-color="#0E5CAD"/>
</linearGradient>
<linearGradient id="paint7_linear_108_116" x1="9" y1="9" x2="19.3063" y2="74.1387" gradientUnits="userSpaceOnUse">
<stop stop-color="#79F1A4"/>
<stop offset="1" stop-color="#0E5CAD"/>
</linearGradient>
<linearGradient id="paint8_linear_108_116" x1="9" y1="9" x2="19.3063" y2="74.1387" gradientUnits="userSpaceOnUse">
<stop stop-color="#79F1A4"/>
<stop offset="1" stop-color="#0E5CAD"/>
</linearGradient>
<linearGradient id="paint9_linear_108_116" x1="9" y1="9" x2="19.3063" y2="74.1387" gradientUnits="userSpaceOnUse">
<stop stop-color="#79F1A4"/>
<stop offset="1" stop-color="#0E5CAD"/>
</linearGradient>
<linearGradient id="paint10_linear_108_116" x1="9" y1="9" x2="19.3063" y2="74.1387" gradientUnits="userSpaceOnUse">
<stop stop-color="#79F1A4"/>
<stop offset="1" stop-color="#0E5CAD"/>
</linearGradient>
</defs>
</svg>
